<svg xmlns="http://www.w3.org/2000/svg" viewBox="0 0 61.4 50.3" style="enable-background:new 0 0 61.4 50.3" xml:space="preserve"><path d="M52.3 33.5H9.1c-4.4 0-8-3.6-8-8v-.4c0-4.4 3.6-8 8-8h43.3c4.4 0 8 3.6 8 8v.4c0 4.4-3.6 8-8.1 8z" style="fill:#eaeaea"/><path d="M52.3 34.5H9.1c-5 0-9.1-4.1-9.1-9.1V25c0-5 4.1-9.1 9.1-9.1h43.2c5 0 9.1 4.1 9.1 9.1v.4c0 5.1-4.1 9.1-9.1 9.1zM9.1 18.1c-3.9 0-7 3.1-7 7v.4c0 3.9 3.1 7 7 7h43.2c3.9 0 7-3.1 7-7v-.4c0-3.9-3.1-7-7-7H9.1z" style="fill:#173f4f"/><path d="M55.2 11.3H19c-2.8 0-5.1-2.3-5.1-5.1C13.9 3.3 16.2 1 19 1h36.2c2.8 0 5.1 2.3 5.1 5.1.1 2.9-2.2 5.2-5.1 5.2z" style="fill:#7dc5b0"/><path d="M55.2 12.3H19c-3.4 0-6.1-2.8-6.1-6.1S15.6 0 19 0h36.2c3.4 0 6.1 2.8 6.1 6.1s-2.7 6.2-6.1 6.2zM19 2.1c-2.3 0-4.1 1.8-4.1 4.1s1.8 4.1 4.1 4.1h36.2c2.3 0 4.1-1.8 4.1-4.1s-1.8-4.1-4.1-4.1H19z" style="fill:#173f4f"/><path d="M55.5 49.3H5.9c-2.7 0-4.8-2.2-4.8-4.8 0-2.7 2.2-4.8 4.8-4.8h49.7c2.7 0 4.8 2.2 4.8 4.8 0 2.6-2.2 4.8-4.9 4.8z" style="fill:#7dc5b0"/><path d="M55.5 50.3H5.9c-3.2 0-5.9-2.6-5.9-5.9 0-3.2 2.6-5.9 5.9-5.9h49.6c3.2 0 5.9 2.6 5.9 5.9 0 3.3-2.7 5.9-5.9 5.9zM5.9 40.6c-2.1 0-3.8 1.7-3.8 3.8s1.7 3.8 3.8 3.8h49.6c2.1 0 3.8-1.7 3.8-3.8s-1.7-3.8-3.8-3.8H5.9z" style="fill:#173f4f"/></svg>