<svg xmlns="http://www.w3.org/2000/svg" viewBox="0 0 40.2 50.3" style="enable-background:new 0 0 40.2 50.3" xml:space="preserve"><path d="M38.5 21.4v9.1c0 8.1-7 14.6-15.5 14.6h-5.7c-8.6 0-15.5-6.5-15.5-14.6v-9.1H0v9.1c0 9 7.7 16.3 17.2 16.3H23c9.5 0 17.2-7.3 17.2-16.3v-9.1h-1.7z" style="fill:#173f4f"/><path d="M33.9 10.3H6.3c1.5-5 6-8.6 11.4-8.6h4.6c5.5 0 10.1 3.6 11.6 8.6zm.5 11.1v7.3c0 6.6-5.4 12-12 12h-4.6c-6.6 0-12-5.4-12-12v-7.3h28.6z" style="fill:#eaeaea"/><path d="M34.4 13.7v1.5H5.8v-1.5c0-.6.1-1.1.2-1.7h28.3c0 .6.1 1.1.1 1.7zM5.8 16.9h28.6v6.6H5.8z" style="fill:#7dc5b0"/><path d="M35.9 11.4v-.3c-.1-.3-.1-.6-.2-.9C34.1 4.4 28.8 0 22.4 0h-4.6C11.4 0 6 4.4 4.5 10.3c-.1.3-.1.6-.2.9v.3c-.1.7-.2 1.5-.2 2.3v15c0 7.6 6.1 13.7 13.7 13.7h4.6c7.6 0 13.7-6.1 13.7-13.7v-15c0-.9-.1-1.6-.2-2.4zm-1.5 17.3c0 6.6-5.4 12-12 12h-4.6c-6.6 0-12-5.4-12-12v-15c0-.6.1-1.1.2-1.7 0-.3.1-.6.1-.8l.3-.9c1.5-5 6-8.6 11.4-8.6h4.6c5.4 0 10 3.6 11.4 8.6l.3.9c.1.3.1.6.1.8.1.6.2 1.1.2 1.7v15z" style="fill:#173f4f"/><path d="M34.2 12H5.9c0-.3.1-.6.1-.8l.3-.9h27.5l.3.9c.1.2.1.5.1.8zM5.8 15.2h28.6v1.7H5.8zm0 6.8h28.6v1.7H5.8zm18.4 28.3H16c-.2 0-.4-.2-.4-.4v-1c0-.2.2-.4.4-.4h8.2c.2 0 .4.2.4.4v1c0 .2-.2.4-.4.4z" style="fill:#173f4f"/></svg>