<svg xmlns="http://www.w3.org/2000/svg" viewBox="0 0 65 50.3" style="enable-background:new 0 0 65 50.3" xml:space="preserve"><path d="M7.6 35c0 3.8 3.6 6.9 7.9 6.9H65V28.1H15.5c-4.4 0-7.9 3.1-7.9 6.9z" style="fill:#eaeaea"/><path d="M15.5 26.2c-5.3 0-9.6 3.9-9.6 8.8 0 4.8 4.3 8.8 9.6 8.8H65v-2l-49.5.1c-4.4 0-7.9-3.1-7.9-6.9s3.6-6.9 7.9-6.9H65v-1.9H15.5z" style="fill:#173f4f"/><path d="M57.6 8.2h-43c-3.9 0-7.1 3.1-7.1 6.9s3.2 6.9 7.1 6.9h43" style="fill:#7dc5b0"/><path d="M14.6 6.4c-4.8 0-8.7 3.9-8.7 8.8 0 4.8 3.9 8.8 8.7 8.8h43v-2h-43c-3.9 0-7.1-3.1-7.1-6.9s3.2-6.9 7.1-6.9h43V6.4h-43z" style="fill:#173f4f"/><path d="M2.3 36c0-3.7 1.6-7 4.2-9.2.6-.5 1.2-1 1.9-1.4-.8-.4-1.4-.9-2.1-1.4-2.6-2.2-4.2-5.7-4.2-9.7 0-6.7 4.8-12.2 10.6-12.2h44.9V0h-45C5.6 0 0 6.4 0 14.3c0 4.5 1.8 8.4 4.7 11C1.8 28 0 31.7 0 36c0 7.9 6.3 14.3 14 14.3h51v-2.1H14.1C7.6 48.2 2.3 42.7 2.3 36z" style="fill:#173f4f"/></svg>