<svg xmlns="http://www.w3.org/2000/svg" viewBox="0 0 62.2 50.3" style="enable-background:new 0 0 62.2 50.3" xml:space="preserve"><path d="M31.2 24.8c-.7-.7-1.5-1.3-2.2-2l-2.5-2.3c-2.2-2-4.5-4.1-6.7-6.2-2.3-2.2-3.1-4.4-2.6-6.8.6-3 2.2-5 4.9-6 1-.3 1.9-.5 2.8-.5 1.8 0 3.4.7 4.9 2l1.9 1.8.7-.8c1.5-1.7 3.1-2.6 5-2.9.3 0 .7-.1 1-.1 2.7 0 5.2 1.4 6.5 3.7 1.7 2.8 1.5 5.6-.4 8.1-1 1.3-2.2 2.5-3.3 3.5-2.4 2.3-4.9 4.5-7.4 6.7l-2.3 2.1-.3-.3z" style="fill:#7dc5b0"/><path d="m31.8 6.3-9.4 9.9-5.3-6.5.7-4.3 1.8-2.5L22.4 1H27l2.9 1.7 1.7 1.6z" style="fill:#eaeaea"/><path d="M24.9 2c1.5 0 2.9.6 4.2 1.7l.7.7.4.4 1.5 1.4 1.4-1.6c1.3-1.5 2.7-2.3 4.4-2.5.3 0 .6-.1.9-.1 2.3 0 4.5 1.2 5.7 3.2 1.5 2.4 1.3 4.8-.3 7-.9 1.2-2.1 2.4-3.2 3.3-2.4 2.3-4.9 4.5-7.4 6.7l-1.6 1.5c-.6-.6-1.3-1.1-1.9-1.7-.8-.8-1.7-1.5-2.5-2.3-2.2-2-4.5-4.1-6.7-6.2-2-1.9-2.7-3.8-2.3-5.9.5-2.6 1.9-4.4 4.3-5.2.8-.2 1.6-.4 2.4-.4m0-2c-1 0-2.1.2-3.1.6-3.1 1.1-5 3.5-5.6 6.7-.6 3.2.8 5.7 2.9 7.7 3 2.9 6.1 5.7 9.2 8.5 1.1 1 2.2 1.9 3.3 2.9 3.5-3.2 7-6.3 10.4-9.5 1.2-1.1 2.4-2.3 3.4-3.6 2.2-2.9 2.3-6.2.5-9.3-1.7-2.4-4.5-4-7.5-4-.4 0-.8 0-1.1.1-2.3.3-4.1 1.4-5.7 3.2-.5-.4-.8-.7-1.1-1.1C28.8.7 26.9 0 24.9 0z" style="fill:#173f4f"/><path d="M12.1 49.3c-.5 0-1.2-.4-1.9-1.1l-5.7-5.7-2.7-2.7c-1-1-1-1.8 0-2.8 5-5 9.9-10 14.9-14.9.4-.4 1.1-.6 1.7-.7 3.5 0 7-.1 10.5-.1h9.2c1.5 0 2.5.5 2.8 1.5.6 1.9.9 3.1-.2 4.1-.3.3-.9.5-1.4.5H25l1.8 1.9.7.7c1.3 1.4 2.7 2.9 5.1 2.9h.6c.9-.1 1.8-.1 2.7-.1h5.2c.8 0 1.5-.3 1.9-.7 3.1-2.9 6.1-5.9 9.1-8.9.4-.4.9-.9 1.3-1.4.4-.5.8-.9 1.3-1.3.8-.7 1.7-1.1 2.6-1.1.7 0 1.3.2 2 .5.9.5 1.5 1.2 1.6 2 .1.8-.2 1.6-1 2.3-2.8 2.8-5.6 5.6-8.5 8.4l-4.7 4.7-.6.6c-1.3 1.5-2.5 2.1-4.2 2.1-2.6 0-5.1-.1-7.6-.1H23.7c-1.4 0-2.4.4-3.3 1.4-1.6 1.7-3.2 3.3-4.9 4.9L13.7 48c-.5 1-1.1 1.3-1.6 1.3z" style="fill:#eaeaea"/><path d="m6.9 32.3 11.6 11.5-6.1 5.9L.7 38.1z" style="fill:#7dc5b0"/><path d="M57.5 20.6c.5 0 .9.1 1.4.4.6.3 1 .8 1.1 1.2.1.4-.2.9-.7 1.4l-8.5 8.5-4.7 4.6c-.2.2-.4.5-.6.7l-.2.2c-.9 1.1-1.8 1.5-3.3 1.5-2.5 0-5.1-.1-7.6-.1H23.8c-1.6 0-2.9.6-4.1 1.7-1.6 1.7-3.2 3.3-4.9 4.9L13 47.4c-.7.7-1 .7-1 .7-.1 0-.5-.2-1.1-.8l-5.7-5.7-2.7-2.7c-.6-.6-.6-.7 0-1.3 4.6-4.6 9.8-9.9 14.9-14.9.2-.1.6-.3.9-.3 3.5 0 7-.1 10.6-.1h9.2c1.5 0 1.7.5 1.8.8.6 1.9.7 2.4.2 2.9-.1.1-.4.2-.7.2H22.5l3.6 3.7.7.7c1.4 1.5 3 3.2 5.9 3.2h.7c.8-.1 1.6-.1 2.6-.1h2.5c.9 0 1.8.1 2.7.1h.2c.9 0 1.9-.4 2.5-1 3.1-2.9 6.1-5.9 9.1-8.9.5-.5.9-.9 1.3-1.4.4-.4.8-.9 1.2-1.3.7-.3 1.3-.6 2-.6m0-2.2c-1.2 0-2.4.5-3.4 1.4-.9.9-1.7 1.8-2.6 2.7-3 3-6.1 5.9-9.1 8.9-.2.2-.6.4-1 .4h-.2c-1.7 0-3.5-.1-5.2-.1-1 0-1.9 0-2.9.1h-.5c-2.3 0-3.4-1.6-5-3.3h11.8c.7 0 1.6-.3 2.1-.7 1.7-1.5 1-3.5.5-5.2-.6-1.7-2.2-2.2-3.9-2.2h-9.2c-3.5 0-7.1 0-10.6.1-.8 0-1.9.4-2.4 1-5 4.9-10 9.9-15 14.9-1.4 1.4-1.4 2.9 0 4.4l8.4 8.4c.9.9 1.8 1.4 2.7 1.4.8 0 1.7-.4 2.6-1.3 2.2-2.2 4.5-4.4 6.7-6.7.7-.7 1.5-1.1 2.5-1.1h10.6c2.5 0 5 0 7.5.1h.2c2.1 0 3.6-.8 4.8-2.3.2-.3.4-.5.7-.8 4.4-4.4 8.8-8.7 13.2-13.1 2.1-2.1 1.6-4.7-.9-6.1-.7-.6-1.6-.9-2.4-.9zM31.8 6.3l-9.7 10.2-1.5-1.5 11-11.7z" style="fill:#173f4f"/></svg>