<svg xmlns="http://www.w3.org/2000/svg" viewBox="0 0 52.7 50.3" style="enable-background:new 0 0 52.7 50.3" xml:space="preserve"><path d="M51.8 20.3c-.2-3.2-2.4-6.4-6.3-8.6C42.3 9.9 26.8 1.2 26.7 1.1l-.3-.2-.4.2C21.5 3.6 10.4 9.8 7.2 11.7c-3.8 2.2-6.1 5.4-6.3 8.6v26.8c0 1.2 1 2.2 2.2 2.2h46.5c1.2 0 2.2-1 2.2-2.2V20.3z" style="fill:#eaeaea"/><path d="M38 29.3c4.3-1.1 6.4-2.4 7.3-3.2.5-.5.6-1.2.3-1.8l-2.4-4.6c-.3-.5-1-.6-1.4-.1-2 2.6-7.1 2.2-9.6 3.1-4.3 1.4-5.6 5-6 6.2 0 .1-.2.1-.2 0-.3-1.2-1.6-4.8-6-6.2-2.5-.8-7.6-.5-9.6-3.1-.4-.5-1.1-.5-1.4.1l-2 4.4c-.4.7-.1 1.7.5 2.2 1 .8 3.1 2 7.1 3 5.3 1.3 9.2 5.5 10.8 7.6.4.6 1.3.6 1.7 0 1.7-2.1 5.6-6.3 10.9-7.6z" style="fill:#7dc5b0"/><path d="M26.3 38.1c-.6 0-1.1-.3-1.5-.7-1.4-1.8-5.3-6.1-10.4-7.3-4.2-1-6.3-2.3-7.4-3.2-.9-.7-1.2-2.1-.7-3.2l2.3-4.5c.2-.5.7-.8 1.2-.8.6-.1 1.1.2 1.5.6 1.2 1.5 3.8 1.9 6.1 2.2 1.2.2 2.2.3 3.1.6 3.3 1.1 5 3.4 5.8 5 .8-1.7 2.5-3.9 5.8-5 .9-.3 1.9-.4 3.1-.6 2.3-.3 4.9-.7 6.1-2.2.4-.5.9-.7 1.5-.6.5 0 1 .4 1.2.8l2.4 4.6c.5.9.3 2.1-.5 2.8-1.1.9-3.2 2.3-7.7 3.4-5.2 1.3-9 5.6-10.4 7.3-.4.5-.9.8-1.5.8zM10 20l-2.3 4.4c-.2.4-.1.9.3 1.2 1 .8 2.9 1.9 6.8 2.9 5.4 1.3 9.4 5.5 11.3 7.9.2.2.3.2.5 0 1.9-2.4 5.9-6.5 11.3-7.9 4.3-1.1 6.2-2.4 7-3 .2-.2.3-.6.1-.9L42.6 20c-1.6 2.1-4.5 2.5-7.1 2.9-1.1.2-2.1.3-2.8.5-3.9 1.3-5.1 4.4-5.5 5.7l-.2.5-.7.1c-.4 0-.8-.3-.9-.7-.3-1.3-1.6-4.4-5.5-5.7-.7-.2-1.7-.4-2.8-.6-2.6-.3-5.5-.7-7.1-2.7zm15.6-9.1h1.5v6.2h-1.5z" style="fill:#173f4f"/><path d="m30.6 18.9-1.1-1 4.3-4.1 1.4.8zm-8.5 0 1.1-1-4.3-4.1-1.4.8z" style="fill:#173f4f"/><path d="M50.7 49.4H2c-.6 0-1-.5-1-1v-7.2h50.9v7.2c-.1.5-.6 1-1.2 1z" style="fill:#7dc5b0"/><path d="M2.9 50.3C1.3 50.3 0 49 0 47.4v-27c.2-3.6 2.6-7 6.7-9.4C9.9 9.1 21.1 2.8 25.6.3l.3-.2c.3-.2.6-.2.9 0l.3.2c.2.1 15.6 8.8 18.9 10.6 4.1 2.4 6.5 5.8 6.7 9.3v27.1c0 1.6-1.3 2.9-2.9 2.9H2.9zm1-1.8h45c1.1 0 2-.9 2-2V20.4c-.1-2.9-2.3-5.8-5.8-7.8C42 10.7 27.9 2.8 26.3 1.9c-4.6 2.6-15.5 8.7-18.7 10.6-3.6 2.1-5.7 5-5.8 7.9v26c0 1.2.9 2.1 2.1 2.1z" style="fill:#173f4f"/></svg>