<svg xmlns="http://www.w3.org/2000/svg" viewBox="0 0 54.5 50.3" style="enable-background:new 0 0 54.5 50.3" xml:space="preserve"><path d="M45 43.6H12.1C3.4 47.6 1 48.7 1 48.7V9.6C1 4.8 4.8 1 9.5 1H45c4.7 0 8.6 3.8 8.6 8.6V35c0 4.8-3.9 8.6-8.6 8.6z" style="fill:#eaeaea"/><path d="M0 50.3V9.6C0 4.3 4.3 0 9.5 0H45c5.3 0 9.5 4.3 9.5 9.5V35c0 5.3-4.3 9.5-9.5 9.5H12.3c-8.5 3.9-10.9 5.1-10.9 5.1l-1.4.7zM9.5 2C5.3 2 1.9 5.4 1.9 9.6v37.7c1.5-.7 4.5-2.1 9.8-4.5l.4-.1H45c4.2 0 7.6-3.4 7.6-7.6V9.6C52.6 5.4 49.2 2 45 2H9.5z" style="fill:#173f4f"/><path d="M32.5 34c-1-1.6-1.9-3.2-2.8-4.8 1.4-.8 2.9-1.6 4.1-2.5 1.3-1 1.9-2.3 2.1-4h-6.2V11.6h13.1v1.7c0 2.7-.1 5.5-.1 8.2 0 5.2-2.7 8.8-7.7 11.2-.7.5-1.6.8-2.5 1.3z" style="fill:#7dc5b0"/><path d="m32.1 35.1-3.6-6.2.7-.4c.4-.3.9-.5 1.3-.8 1-.6 1.9-1.1 2.7-1.7.8-.6 1.4-1.4 1.6-2.5h-6.1V10.8h15v10.9c0 5.4-2.7 9.4-8.2 12-.5.3-1.1.5-1.7.8l-1.7.6zm-1.2-5.6 2 3.4h.1c.6-.3 1.1-.5 1.6-.7 4.9-2.3 7.2-5.7 7.2-10.5v-9.1H30.7V22H37l-.1.9c-.2 2-1 3.5-2.4 4.6-.9.7-1.9 1.3-2.9 1.8-.3 0-.5.1-.7.2z" style="fill:#173f4f"/><path d="M14.8 34c-1-1.6-1.9-3.2-2.8-4.8 1.4-.8 2.9-1.6 4.1-2.5 1.3-1 1.9-2.3 2.1-4H12V11.6h13.1v1.7c0 2.7-.1 5.5-.1 8.2 0 5.2-2.7 8.8-7.7 11.2-.7.5-1.5.8-2.5 1.3z" style="fill:#7dc5b0"/><path d="m14.4 35.1-3.6-6.2.7-.4c.4-.3.9-.5 1.3-.8 1-.6 1.9-1.1 2.7-1.7.8-.6 1.4-1.4 1.6-2.5H11V10.8h15v10.9c0 5.3-2.7 9.4-8.2 12-.5.3-1.1.5-1.7.8l-1.7.6zm-1.2-5.6 2 3.4h.1c.6-.3 1.1-.5 1.6-.7 4.9-2.3 7.2-5.7 7.2-10.5v-9.1H13V22h6.3l-.1.9c-.2 2-1 3.5-2.4 4.6-.9.7-1.9 1.3-2.9 1.8-.3 0-.5.1-.7.2z" style="fill:#173f4f"/></svg>