<svg xmlns="http://www.w3.org/2000/svg" viewBox="0 0 62.3 50.3" style="enable-background:new 0 0 62.3 50.3" xml:space="preserve"><path d="M50.2 49.2H12.1c-6.1 0-11-4.9-11-11V12.1c0-6.1 4.9-11 11-11h38.1c6.1 0 11 4.9 11 11v26.2c0 5.9-4.9 10.9-11 10.9z" style="fill:#eaeaea"/><path d="M49.2 50.3H13.1C5.9 50.3 0 44.4 0 37.2V13.1C0 5.9 5.9 0 13.1 0h36.2c7.2 0 13.1 5.9 13.1 13.1v24.2c-.1 7.1-6 13-13.2 13zm-36.1-48c-6 0-10.8 4.8-10.8 10.8v24.2c0 6 4.8 10.8 10.8 10.8h36.2c6 0 10.8-4.8 10.8-10.8V13.1c0-6-4.8-10.8-10.8-10.8H13.1z" style="fill:#173f4f"/><path d="M19.5 24.7h-3.2V21c0-1.1.4-2 1.4-2.6.6-.4 1.3-.8 1.9-1.3.8-.6 1.1-1.3.9-2.3-.1-.4-.3-.8-.6-1-1.1-.9-2.9-.9-4-.1-.7.5-.9 1.3-1 2.1v1.5h-3.2v-1.4c.1-1.9.8-3.5 2.3-4.7.9-.7 1.9-1.1 3.1-1.2 2.1-.2 4 .3 5.5 1.9 1.5 1.6 2 3.5 1.2 5.6-.3.9-.9 1.5-1.7 2-.4.3-.8.5-1.2.8-.8.5-1.2 1.2-1.2 2.2-.1.8-.2 1.5-.2 2.2zm-3.2 4.7v-3.3h3.2v3.3h-3.2zM48 17.8H30.7c-1.2 0-2.1-.9-2.1-2.1V13c0-1.2.9-2.1 2.1-2.1H48c1.2 0 2.1.9 2.1 2.1v2.7c-.1 1.2-1 2.1-2.1 2.1z" style="fill:#7dc5b0"/><path d="M46.6 18.4H32.1c-2.2 0-4.1-1.8-4.1-4.1s1.8-4.1 4.1-4.1h14.6c2.2 0 4.1 1.8 4.1 4.1s-2 4.1-4.2 4.1zm-14.5-6.9c-1.6 0-2.8 1.3-2.8 2.8s1.3 2.8 2.8 2.8h14.6c1.6 0 2.8-1.3 2.8-2.8s-1.3-2.8-2.8-2.8H32.1z" style="fill:#173f4f"/><path d="M48 28.8H30.7c-1.2 0-2.1-.9-2.1-2.1V24c0-1.2.9-2.1 2.1-2.1H48c1.2 0 2.1.9 2.1 2.1v2.7c-.1 1.1-1 2.1-2.1 2.1z" style="fill:#7dc5b0"/><path d="M46.6 29.4H32.1c-2.2 0-4.1-1.8-4.1-4.1s1.8-4.1 4.1-4.1h14.6c2.2 0 4.1 1.8 4.1 4.1s-2 4.1-4.2 4.1zm-14.5-6.9c-1.6 0-2.8 1.3-2.8 2.8 0 1.6 1.3 2.8 2.8 2.8h14.6c1.6 0 2.8-1.3 2.8-2.8 0-1.6-1.3-2.8-2.8-2.8H32.1z" style="fill:#173f4f"/><path d="M48 39.7H14.3c-1.2 0-2.1-.9-2.1-2.1v-2.7c0-1.2.9-2.1 2.1-2.1H48c1.2 0 2.1.9 2.1 2.1v2.7c-.1 1.2-1 2.1-2.1 2.1z" style="fill:#7dc5b0"/><path d="M46.6 40.3H15.7c-2.2 0-4.1-1.8-4.1-4.1 0-2.2 1.8-4.1 4.1-4.1h30.9c2.2 0 4.1 1.8 4.1 4.1s-1.9 4.1-4.1 4.1zm-30.9-6.9c-1.6 0-2.8 1.3-2.8 2.8 0 1.6 1.3 2.8 2.8 2.8h30.9c1.6 0 2.8-1.3 2.8-2.8 0-1.6-1.3-2.8-2.8-2.8H15.7z" style="fill:#173f4f"/></svg>