<svg xmlns="http://www.w3.org/2000/svg" viewBox="0 0 60.3 50.3" style="enable-background:new 0 0 60.3 50.3" xml:space="preserve"><path d="M47.5 1.5c.7-.2 1.4-.3 2.1-.3 2.7 0 5.5 1.5 7.4 3.8 3.2 4 2.5 8.4.8 10.7L47.5 1.5z" style="fill:#7dc5b0"/><path d="M49.6 2.3c2.3 0 4.8 1.3 6.5 3.4 2.2 2.8 2.3 5.8 1.5 7.8L51.4 5l-1.9-2.7h.1m0-2.3c-1.4 0-2.7.3-3.9 1l12 16.5c2.7-2.4 4.2-8.2.2-13.2C55.7 1.5 52.6 0 49.6 0z" style="fill:#173f4f"/><path d="M2.5 15.7C.9 13.3.2 9 3.4 5 5.2 2.6 8 1.1 10.7 1.1c.8 0 1.5.1 2.1.3L2.5 15.7z" style="fill:#7dc5b0"/><path d="M10.7 2.3h.1L8.9 5l-6.2 8.6C2 11.4 2 8.5 4.2 5.7c1.7-2.1 4.2-3.4 6.5-3.4m0-2.3c-3 0-6.1 1.5-8.3 4.3-4 5.1-2.5 10.9.2 13.2L14.6 1c-1.2-.7-2.5-1-3.9-1zm1.6 50.3H9.4l4.9-6 1.8 1.5zm35.7 0-3.7-4.5 1.7-1.5 5 6z" style="fill:#173f4f"/><path d="M30.2 49.1v-.6.6zm0-.2v-.6.6zm.1-.3H30h.3zm-.1.3v-.3.3zm0-.2v.5-.5zm0-30.2v-.4.4zm0-.3v.4-.4z"/><circle cx="30.2" cy="25.4" r="23.8" style="fill:#7dc5b0"/><path d="M30.2 50.3c-13.7 0-24.9-11.2-24.9-24.9S16.4.5 30.2.5s24.9 11.2 24.9 24.9-11.2 24.9-24.9 24.9zm0-47.5C17.7 2.8 7.5 12.9 7.5 25.4S17.7 48 30.1 48s22.6-10.2 22.6-22.6S42.6 2.8 30.2 2.8z" style="fill:#173f4f"/><circle cx="30.2" cy="25.4" r="18.9" style="fill:#eaeaea"/><path d="m22.6 34.8-2.1-.9 4.6-10.5L38.7 16l1.1 2-12.9 7.1zm8.3-26.7h-1.7V4.6h1.7v3.5zm.2 38.1h-1.8v-3.4h1.8v3.4zm-21.8-20v-1.6h3.5v1.6H9.3zm38.3-1.6h3.5v1.6h-3.5v-1.6z" style="fill:#173f4f"/></svg>