<svg xmlns="http://www.w3.org/2000/svg" viewBox="0 0 57.3 50.3" style="enable-background:new 0 0 57.3 50.3" xml:space="preserve"><path d="M50.9 49.3H6.3c-3 0-5.4-2.4-5.4-5.4V6.5c0-3 2.4-5.4 5.4-5.4h44.6c3 0 5.4 2.4 5.4 5.4v37.4c0 3-2.4 5.4-5.4 5.4z" style="fill:#7dc5b0"/><path d="M11.5 25.2h18.9v16.6H11.5z" style="fill:#eaeaea"/><path d="M31.3 42.7H10.5V24.3h20.8v18.4zm-18.9-1.9h17V26.1h-17v14.7zm21.7-15.7h12.6v2H34.1zm0 7.4h12.6v2H34.1zm0 7.3h12.6v2H34.1z" style="fill:#173f4f"/><path d="M56.3 17.1H.9V7.3c0-3.4 2.8-6.2 6.2-6.2H50c3.4 0 6.2 2.8 6.2 6.2v9.8z" style="fill:#eaeaea"/><path d="M51.3 50.3H6c-3.3 0-6-2.9-6-6.4V6.5C0 3 2.7.1 6 .1h45.3c3.3 0 6 2.9 6 6.4V44c0 3.4-2.7 6.3-6 6.3zM6 2.1c-2.3 0-4.1 2-4.1 4.4V44c0 2.4 1.8 4.4 4.1 4.4h45.3c2.3 0 4.1-2 4.1-4.4V6.5c0-2.4-1.8-4.4-4.1-4.4H6z" style="fill:#173f4f"/></svg>