<svg xmlns="http://www.w3.org/2000/svg" viewBox="0 0 70 50.3" style="enable-background:new 0 0 70 50.3" xml:space="preserve"><path d="M35.3 13.6c-3.7-9.3-11.7-7.1-15.9-8S11.3.9 11.3.9L7.1 6.3l27.8 20.5L63.6 6.3 59.4.9s-3.9 3.8-8.1 4.7-12.3-1.2-16 8z" style="fill:#eaeaea"/><path d="M34.2 27.4 6.8 7.2c-.5-.4-.6-1.1-.2-1.6l4-5.2c.3-.4.9-.5 1.4-.1 1.4 1.2 4.7 3.9 7.6 4.5.8.2 1.9.2 3 .3 4 .2 9.4.4 12.7 6.6C38.5 5.5 44 5.2 48.1 5c1.2-.1 2.2-.1 3.1-.3 2.9-.6 6.2-3.2 7.6-4.5.4-.4 1-.3 1.4.1l4 5.2c.4.5.3 1.2-.2 1.6L35.7 27.4c-.5.3-1.1.3-1.5 0zM8.4 6.1 35 25.7 62.3 6.1l-3-3.9c-1.3 1.2-4.5 3.6-7.8 4.3-1 .2-2.1.3-3.3.3-4.2.3-9.5.5-12.2 7.2l-.8 1.9-.7-1.9c-2.7-6.7-7.8-7-12-7.2-1.2-.1-2.3-.1-3.3-.3-3.3-.7-6.5-3.2-7.8-4.3l-3 3.9z" style="fill:#173f4f"/><path style="fill:#7dc5b0" d="M45.7 49.4 35 41.7l-10.7 7.7h-11l16.3-11.7L.9 16.9V9.6L35 33.9 69 9.6l.1 7.3-28.7 20.8 16.1 11.7z"/><path d="M56 50.3H45.6c-.1 0-.2 0-.3-.1l-10-7.2c-.2-.1-.4-.1-.6 0l-10 7.2c-.1.1-.2.1-.3.1H13.7c-1.1 0-1.5-1.5-.6-2.1l14.3-10c.3-.2.3-.7 0-1L.2 17.6c-.1-.1-.2-.3-.2-.5L.1 9c0-.5.5-.7.8-.5l33.7 24.1c.2.1.4.1.6 0L69 8.5c.4-.3.8 0 .8.5l.1 8.1c0 .2-.1.4-.2.5L42.6 37.2c-.3.2-.3.8 0 1l14 10c.9.6.5 2.1-.6 2.1zm-9.9-1.8h6c1.7 0 .7-.8.3-1.1l-12.8-9.1c-.3-.2-.3-.7 0-1L68 16.6c.2-.1.2-.3.2-.5l-.1-4.8-32.8 23.5c-.2.1-.4.1-.6 0L1.8 11.3l-.1 4.8c0 .2.1.4.2.5l28.5 20.7c.3.2.3.8 0 1l-12.8 9.1c-.4.3-1.6 1.1.3 1.1h6c.1 0 .2 0 .3-.1l10.5-7.6c.2-.1.4-.1.6 0l10.5 7.6c.1 0 .2.1.3.1z" style="fill:#173f4f"/></svg>